<?xml version="1.0" encoding="UTF-8"?>
<svg version="1.1" xmlns="http://www.w3.org/2000/svg" width="128" height="128">
<path d="M0 0 C13.11623648 10.39888166 21.40757602 24.22726687 24.29345703 40.74804688 C25.66005697 61.07518559 22.92998026 78.44170818 9.42236328 94.43554688 C-1.24386793 106.02161821 -14.99830283 114.82643758 -31.10327148 115.90917969 C-54.33217974 116.30215423 -70.26246605 112.14611061 -87.66748047 95.91992188 C-100.17793474 82.89999209 -104.21795399 66.35620543 -104.05419922 48.81982422 C-103.61023095 31.72996678 -97.20548115 17.37880528 -85.26513672 5.11132812 C-61.74467387 -16.61367954 -25.89731093 -18.99877117 0 0 Z " fill="#090807" transform="translate(103.70654296875,12.251953125)"/>
<path d="M0 0 C2.5625 0.1875 2.5625 0.1875 4.5625 2.1875 C7.00262949 2.43037489 7.00262949 2.43037489 9.6875 2.3125 C11.05261719 2.28542969 11.05261719 2.28542969 12.4453125 2.2578125 C13.14398438 2.23460937 13.84265625 2.21140625 14.5625 2.1875 C14.62033842 6.47911047 14.6560412 10.77062145 14.6875 15.0625 C14.70425781 16.28582031 14.72101563 17.50914063 14.73828125 18.76953125 C14.74794922 20.51943359 14.74794922 20.51943359 14.7578125 22.3046875 C14.77352295 23.92286377 14.77352295 23.92286377 14.78955078 25.57373047 C14.5625 28.1875 14.5625 28.1875 12.5625 30.1875 C9.9375 30.3125 9.9375 30.3125 7.5625 30.1875 C5.80345254 26.66940508 6.1924413 22.40643715 6.04492188 18.50976562 C5.95346924 16.7307531 5.76518004 14.95729376 5.5625 13.1875 C4.9025 12.8575 4.2425 12.5275 3.5625 12.1875 C3.58570312 13.31929687 3.60890625 14.45109375 3.6328125 15.6171875 C3.65156901 17.09895175 3.66976934 18.58072312 3.6875 20.0625 C3.70425781 20.80886719 3.72101563 21.55523437 3.73828125 22.32421875 C3.7558959 24.27944461 3.66570189 26.23492021 3.5625 28.1875 C1.5625 30.1875 1.5625 30.1875 -1.0625 30.3125 C-1.84625 30.27125 -2.63 30.23 -3.4375 30.1875 C-5.19654746 26.66940508 -4.8075587 22.40643715 -4.95507812 18.50976562 C-5.04653076 16.7307531 -5.23481996 14.95729376 -5.4375 13.1875 C-6.0975 12.8575 -6.7575 12.5275 -7.4375 12.1875 C-7.41429688 13.31929687 -7.39109375 14.45109375 -7.3671875 15.6171875 C-7.34843099 17.09895175 -7.33023066 18.58072312 -7.3125 20.0625 C-7.29574219 20.80886719 -7.27898438 21.55523437 -7.26171875 22.32421875 C-7.2441041 24.27944461 -7.33429811 26.23492021 -7.4375 28.1875 C-9.4375 30.1875 -9.4375 30.1875 -12.0625 30.3125 C-12.84625 30.27125 -13.63 30.23 -14.4375 30.1875 C-16.19654746 26.66940508 -15.8075587 22.40643715 -15.95507812 18.50976562 C-16.04653076 16.7307531 -16.23481996 14.95729376 -16.4375 13.1875 C-17.0975 12.8575 -17.7575 12.5275 -18.4375 12.1875 C-18.41429687 13.17492188 -18.39109375 14.16234375 -18.3671875 15.1796875 C-18.34011719 17.10167969 -18.34011719 17.10167969 -18.3125 19.0625 C-18.28929687 20.33867188 -18.26609375 21.61484375 -18.2421875 22.9296875 C-18.4375 26.1875 -18.4375 26.1875 -20.4375 28.1875 C-22.9375 28.4375 -22.9375 28.4375 -25.4375 28.1875 C-27.88736932 25.73763068 -27.69381311 25.050422 -27.703125 21.6875 C-27.70570312 20.800625 -27.70828125 19.91375 -27.7109375 19 C-27.69933594 17.6078125 -27.69933594 17.6078125 -27.6875 16.1875 C-27.69523437 15.259375 -27.70296875 14.33125 -27.7109375 13.375 C-27.70835938 12.488125 -27.70578125 11.60125 -27.703125 10.6875 C-27.70086914 9.8728125 -27.69861328 9.058125 -27.69628906 8.21875 C-27.4375 6.1875 -27.4375 6.1875 -25.4375 4.1875 C-23.11144678 4.04863115 -20.8571844 4.19167224 -18.53125 4.3125 C-16.2141235 4.40659662 -16.2141235 4.40659662 -14.4375 2.1875 C-11.87109375 1.80859375 -11.87109375 1.80859375 -8.875 1.625 C-5.43662724 1.40590993 -3.13041769 0.24080136 0 0 Z " fill="#F4F4F4" transform="translate(68.4375,45.8125)"/>
<path d="M0 0 C4.15995195 0.26349024 6.79221416 1.90238492 10 4.5625 C11.7246216 8.0117432 11.36610104 11.78381431 11 15.5625 C9.7671112 18.45978868 8.7754988 19.95933427 6.3125 21.875 C2.84712568 22.90524642 -0.45071301 23.15287645 -4 22.5625 C-7 20.6875 -7 20.6875 -9 18.5625 C-9 17.9025 -9 17.2425 -9 16.5625 C-13.95 16.5625 -18.9 16.5625 -24 16.5625 C-24 13.2625 -24 9.9625 -24 6.5625 C-23.05898437 6.54832031 -22.11796875 6.53414062 -21.1484375 6.51953125 C-13.23458585 6.61815896 -13.23458585 6.61815896 -6.625 3 C-3.91090667 0.47977048 -3.46390099 0.15568094 0 0 Z " fill="#E3B42E" transform="translate(110,52.4375)"/>
<path d="M0 0 C0.66 0 1.32 0 2 0 C1.51675181 5.15464734 -1.18610761 8.81550319 -4 13 C-6.58068433 12.48386313 -9.13694286 11.96496811 -11.6875 11.3125 C-12.450625 11.209375 -13.21375 11.10625 -14 11 C-14.66 11.66 -15.32 12.32 -16 13 C-15.72197162 15.39388923 -15.72197162 15.39388923 -15 18 C-14.66104114 19.66553168 -14.32688343 21.33205632 -14 23 C-15.40552299 24.03612271 -16.82491694 25.05344925 -18.25 26.0625 C-19.43335937 26.91521484 -19.43335937 26.91521484 -20.640625 27.78515625 C-23 29 -23 29 -25.21484375 28.84375 C-27 28 -27 28 -28.3125 25.4375 C-28.869375 24.633125 -29.42625 23.82875 -30 23 C-33.62599422 22.58274322 -33.62599422 22.58274322 -37 23 C-37 26.3 -37 29.6 -37 33 C-41.95 33 -46.9 33 -52 33 C-52.495 28.545 -52.495 28.545 -53 24 C-55.31 23.34 -57.62 22.68 -60 22 C-60.309375 22.78375 -60.61875 23.5675 -60.9375 24.375 C-62 27 -62 27 -63 29 C-68.28137429 28.48474397 -71.57221156 26.74522883 -76 24 C-75.51991666 21.05091665 -75.03751631 18.15006523 -74.3125 15.25 C-74.209375 14.5075 -74.10625 13.765 -74 13 C-74.66 12.34 -75.32 11.68 -76 11 C-78.39388923 11.27802838 -78.39388923 11.27802838 -81 12 C-82.66553168 12.33895886 -84.33205632 12.67311657 -86 13 C-87.00842453 11.56839732 -88.00647891 10.12948547 -89 8.6875 C-89.8353125 7.48673828 -89.8353125 7.48673828 -90.6875 6.26171875 C-92 4 -92 4 -92 1 C-87.60841671 2.4638611 -87.12052567 4.97831338 -85 9 C-84.0925 8.67 -83.185 8.34 -82.25 8 C-79 7 -79 7 -75 7 C-73.26171875 8.171875 -73.26171875 8.171875 -71.6875 9.75 C-71.15511719 10.26046875 -70.62273437 10.7709375 -70.07421875 11.296875 C-69 13 -69 13 -69.265625 15.03125 C-70.13860005 17.37156609 -71.03925712 19.69421709 -72 22 C-69.36 23.32 -66.72 24.64 -64 26 C-63.7525 25.030625 -63.505 24.06125 -63.25 23.0625 C-62.8375 22.051875 -62.425 21.04125 -62 20 C-57.73809893 18.23645473 -54.25456799 19.79453907 -50 21 C-50 24.3 -50 27.6 -50 31 C-46.7 31 -43.4 31 -40 31 C-40 27.7 -40 24.4 -40 21 C-34.555 20.01 -34.555 20.01 -29 19 C-27.68 20.98 -26.36 22.96 -25 25 C-22.69 24.01 -20.38 23.02 -18 22 C-18.495 20.63875 -18.495 20.63875 -19 19.25 C-20 16 -20 16 -20 12 C-18.49611257 9.32249062 -16.69375126 7.48020271 -14 6 C-10.78428853 6.08366079 -8.0057096 6.89122712 -5 8 C-4.49339844 7.13375 -4.49339844 7.13375 -3.9765625 6.25 C-3.30753906 5.13625 -3.30753906 5.13625 -2.625 4 C-1.96371094 2.88625 -1.96371094 2.88625 -1.2890625 1.75 C-0.86367187 1.1725 -0.43828125 0.595 0 0 Z " fill="#D9D9D9" transform="translate(109,82)"/>
<path d="M0 0 C4.95 0 9.9 0 15 0 C15 3.3 15 6.6 15 10 C17.31 10.33 19.62 10.66 22 11 C22.309375 10.21625 22.61875 9.4325 22.9375 8.625 C24 6 24 6 25 4 C30.15464734 4.48324819 33.81550319 7.18610761 38 10 C37.48386313 12.58068433 36.96496811 15.13694286 36.3125 17.6875 C36.209375 18.450625 36.10625 19.21375 36 20 C36.99 20.99 36.99 20.99 38 22 C40.39388923 21.72197162 40.39388923 21.72197162 43 21 C44.66553168 20.66104114 46.33205632 20.32688343 48 20 C49.01131225 21.40861349 50.00866767 22.82725453 51 24.25 C51.556875 25.03890625 52.11375 25.8278125 52.6875 26.640625 C54 29 54 29 54 33 C53.34 33 52.68 33 52 33 C50.35 30.03 48.7 27.06 47 24 C46.2575 24.309375 45.515 24.61875 44.75 24.9375 C43.8425 25.288125 42.935 25.63875 42 26 C41.0409375 26.38671875 41.0409375 26.38671875 40.0625 26.78125 C38 27 38 27 36.078125 25.56640625 C35.47484375 24.90511719 34.8715625 24.24382813 34.25 23.5625 C33.63640625 22.90378906 33.0228125 22.24507812 32.390625 21.56640625 C31.70226562 20.79103516 31.70226562 20.79103516 31 20 C32.19899698 16.9168649 33.47700477 13.93720508 35 11 C32.34771188 9.92474806 29.71631546 8.90543849 27 8 C25.68 9.98 24.36 11.96 23 14 C15.375 13.125 15.375 13.125 12 12 C12 8.7 12 5.4 12 2 C8.7 2 5.4 2 2 2 C2 5.3 2 8.6 2 12 C-1.63 12.66 -5.26 13.32 -9 14 C-12 9.25 -12 9.25 -12 7 C-15.96 8.98 -15.96 8.98 -20 11 C-19.5359375 12.11375 -19.5359375 12.11375 -19.0625 13.25 C-17.29080838 17.83555479 -17.29080838 17.83555479 -17 20 C-18.49119517 22.58203054 -20.50398331 24.38787341 -23 26 C-26.125 25.9375 -26.125 25.9375 -29 25 C-30.33134529 24.65881295 -31.66433968 24.3238833 -33 24 C-33.33773437 24.5775 -33.67546875 25.155 -34.0234375 25.75 C-34.69246094 26.86375 -34.69246094 26.86375 -35.375 28 C-35.81585938 28.7425 -36.25671875 29.485 -36.7109375 30.25 C-37.13632812 30.8275 -37.56171875 31.405 -38 32 C-38.66 32 -39.32 32 -40 32 C-39.51675181 26.84535266 -36.81389239 23.18449681 -34 19 C-33.278125 19.309375 -32.55625 19.61875 -31.8125 19.9375 C-29.16033333 20.93942963 -26.8182623 21.69532299 -24 22 C-23.34 21.34 -22.68 20.68 -22 20 C-22.2730774 17.10839021 -22.2730774 17.10839021 -23 14 C-23.33518807 12.33370535 -23.66884418 10.66710069 -24 9 C-22.61518672 8.12808053 -21.21654754 7.27809616 -19.8125 6.4375 C-19.03519531 5.96183594 -18.25789063 5.48617188 -17.45703125 4.99609375 C-14.51639033 3.80394203 -12.99553637 4.11144836 -10 5 C-9.34 6.98 -8.68 8.96 -8 11 C-5.36 10.67 -2.72 10.34 0 10 C0 6.7 0 3.4 0 0 Z " fill="#D9D9D9" transform="translate(57,13)"/>
<path d="M0 0 C3.5 1.875 3.5 1.875 6 4 C6 4.66 6 5.32 6 6 C10.29 6 14.58 6 19 6 C19 9.3 19 12.6 19 16 C14.71 16 10.42 16 6 16 C5.34 17.32 4.68 18.64 4 20 C0.92798404 22.3630892 -2.35145579 22.35248335 -6.09375 22.26171875 C-8.74787029 21.89732109 -10.19732149 20.95290172 -12 19 C-12 18.34 -12 17.68 -12 17 C-9.69 17 -7.38 17 -5 17 C-3.41461682 14.48203847 -2.9626344 13.32134414 -3.3125 10.3125 C-3.78284847 8.05839048 -3.78284847 8.05839048 -5 7 C-6.34747084 6.76924918 -7.70377565 6.58846937 -9.0625 6.4375 C-10.361875 6.293125 -11.66125 6.14875 -13 6 C-10.39323825 -0.01560404 -6.21588794 -0.98330431 0 0 Z " fill="#E3B42E" transform="translate(20,53)"/>
<path d="M0 0 C0.99 0.33 1.98 0.66 3 1 C2.67 2.65 2.34 4.3 2 6 C1.34 6 0.68 6 0 6 C-0.2784375 6.99 -0.2784375 6.99 -0.5625 8 C-4.20287771 15.59731 -9.87702246 20.43183445 -17.484375 23.9296875 C-26.51978444 26.68046771 -37.28866743 26.48387711 -45.86328125 22.3203125 C-52.84583809 18.00567957 -58.24274593 12.34372386 -62 5 C-62 4.01 -62 3.02 -62 2 C-58.40540078 3.19819974 -58.13392304 4.02822456 -56.25 7.1875 C-52.63665813 12.83222312 -48.26938 17.38587224 -42 20 C-33.20419449 21.88568444 -23.15905747 22.6564117 -15.0234375 18.31640625 C-7.48555664 13.41241813 -3.47722177 8.30855395 0 0 Z " fill="#D6AA2C" transform="translate(94,73)"/>
<path d="M0 0 C5.89754233 4.06497268 10.93113932 9.10736979 12.69921875 16.1796875 C12.74046875 17.0046875 12.78171875 17.8296875 12.82421875 18.6796875 C12.16421875 18.6796875 11.50421875 18.6796875 10.82421875 18.6796875 C9.86483182 17.17674698 8.98192251 15.62468243 8.13671875 14.0546875 C2.78881495 4.96196857 -4.06284365 0.70580949 -14.17578125 -2.3203125 C-22.24439413 -3.56706609 -29.23125175 -1.45035843 -36.30078125 2.3671875 C-41.92578444 6.89164658 -46.34503576 12.01910988 -49.17578125 18.6796875 C-49.83578125 18.6796875 -50.49578125 18.6796875 -51.17578125 18.6796875 C-51.52673756 13.60836884 -50.1028771 11.57188563 -47.00390625 7.734375 C-34.34966096 -6.48813146 -16.7404222 -10.15846087 0 0 Z " fill="#DEB02D" transform="translate(83.17578125,35.3203125)"/>
<path d="M0 0 C0.99 0 1.98 0 3 0 C3.1953125 6.0546875 3.1953125 6.0546875 3 8 C0.55013068 10.44986932 -0.137078 10.25631311 -3.5 10.265625 C-4.386875 10.26820312 -5.27375 10.27078125 -6.1875 10.2734375 C-7.5796875 10.26183594 -7.5796875 10.26183594 -9 10.25 C-9.928125 10.25773437 -10.85625 10.26546875 -11.8125 10.2734375 C-13.1428125 10.26957031 -13.1428125 10.26957031 -14.5 10.265625 C-15.3146875 10.26336914 -16.129375 10.26111328 -16.96875 10.25878906 C-19 10 -19 10 -21 8 C-20.67 7.01 -20.34 6.02 -20 5 C-18.35492782 4.80593522 -16.70890406 4.61992065 -15.0625 4.4375 C-13.68771484 4.28087891 -13.68771484 4.28087891 -12.28515625 4.12109375 C-11.53105469 4.08113281 -10.77695313 4.04117188 -10 4 C-9.67 4.33 -9.34 4.66 -9 5 C-5.51381119 4.90691463 -5.51381119 4.90691463 -2 4 C-0.48705712 2.06402968 -0.48705712 2.06402968 0 0 Z " fill="#F1F1F1" transform="translate(85,73)"/>
<path d="M0 0 C0.99 0.33 1.98 0.66 3 1 C2.67 2.65 2.34 4.3 2 6 C1.34 6 0.68 6 0 6 C-0.2784375 6.99 -0.2784375 6.99 -0.5625 8 C-4.80007807 16.84364118 -11.88756382 21.69518627 -21 25 C-21.66 24.67 -22.32 24.34 -23 24 C-26.56948729 23.72134114 -30.13881679 23.55271521 -33.71484375 23.37890625 C-37 23 -37 23 -40 21 C-38.80503906 21.04640625 -37.61007813 21.0928125 -36.37890625 21.140625 C-24.07769717 21.6949905 -24.07769717 21.6949905 -13 17 C-12.29617187 16.51402344 -11.59234375 16.02804688 -10.8671875 15.52734375 C-5.40539324 11.26472572 -2.64815069 6.32755236 0 0 Z " fill="#DBAE2D" transform="translate(94,73)"/>
<path d="M0 0 C0.66 0 1.32 0 2 0 C1.51675181 5.15464734 -1.18610761 8.81550319 -4 13 C-6.58068433 12.48386313 -9.13694286 11.96496811 -11.6875 11.3125 C-12.450625 11.209375 -13.21375 11.10625 -14 11 C-14.66 11.66 -15.32 12.32 -16 13 C-15.63723355 15.82957829 -14.90305236 18.29084291 -14 21 C-14.99 21.33 -15.98 21.66 -17 22 C-21.13815789 15.67105263 -21.13815789 15.67105263 -20.5625 12.875 C-20.046875 12.25625 -19.53125 11.6375 -19 11 C-18.319375 10.05125 -17.63875 9.1025 -16.9375 8.125 C-14 6 -14 6 -11.671875 6.12890625 C-9.39464241 6.64092553 -7.20769416 7.24486278 -5 8 C-4.66226563 7.4225 -4.32453125 6.845 -3.9765625 6.25 C-3.53054687 5.5075 -3.08453125 4.765 -2.625 4 C-2.18414062 3.2575 -1.74328125 2.515 -1.2890625 1.75 C-0.86367187 1.1725 -0.43828125 0.595 0 0 Z " fill="#D1D1D1" transform="translate(109,82)"/>
<path d="M0 0 C4.62 0 9.24 0 14 0 C13.67 1.98 13.34 3.96 13 6 C13.33 6.66 13.66 7.32 14 8 C9.38 8 4.76 8 0 8 C0 5.36 0 2.72 0 0 Z " fill="#FCC833" transform="translate(86,60)"/>
<path d="M0 0 C1.9375 0.8125 1.9375 0.8125 4.9375 2.8125 C5.375 5.75 5.375 5.75 4.9375 8.8125 C3.25 10.75 3.25 10.75 0.9375 11.8125 C-2.43286311 11.57175978 -3.65048021 11.22451979 -6.0625 8.8125 C-6.4375 5.875 -6.4375 5.875 -6.0625 2.8125 C-4.04379985 0.57751055 -3.04410001 -0.27673636 0 0 Z " fill="#191305" transform="translate(111.0625,58.1875)"/>
<path d="M0 0 C0.99 0.33 1.98 0.66 3 1 C3.33 6.61 3.66 12.22 4 18 C6.97 17.34 9.94 16.68 13 16 C12.34 17.32 11.68 18.64 11 20 C7.00081051 20.96276784 3.90594857 21.25998341 0 20 C-1.99788438 19.65421232 -3.99759451 19.31856451 -6 19 C-5.0409375 18.5359375 -5.0409375 18.5359375 -4.0625 18.0625 C-2.06389179 17.1654837 -2.06389179 17.1654837 -1 16 C-0.76321284 13.30764224 -0.57801975 10.63501844 -0.4375 7.9375 C-0.37272461 6.79958008 -0.37272461 6.79958008 -0.30664062 5.63867188 C-0.20026367 3.75934562 -0.09960066 1.87969756 0 0 Z " fill="#2F2F2F" transform="translate(72,58)"/>
<path d="M0 0 C0.66 0.33 1.32 0.66 2 1 C1.66093677 4.05156911 0.73958327 5.33482151 -1.1875 7.8125 C-4 10 -4 10 -7.0625 9.875 C-8.031875 9.58625 -9.00125 9.2975 -10 9 C-11.33206223 8.66162283 -12.66516078 8.3272509 -14 8 C-14.33773438 8.5775 -14.67546875 9.155 -15.0234375 9.75 C-15.69246094 10.86375 -15.69246094 10.86375 -16.375 12 C-16.81585937 12.7425 -17.25671875 13.485 -17.7109375 14.25 C-18.13632812 14.8275 -18.56171875 15.405 -19 16 C-19.66 16 -20.32 16 -21 16 C-20.51675181 10.84535266 -17.81389239 7.18449681 -15 3 C-13.9171875 3.4640625 -13.9171875 3.4640625 -12.8125 3.9375 C-10.19692691 4.92560539 -7.74881018 5.5287754 -5 6 C-4.360625 5.195625 -3.72125 4.39125 -3.0625 3.5625 C-1 1 -1 1 0 0 Z " fill="#D9D9D9" transform="translate(38,29)"/>
<path d="M0 0 C0.721875 0.78375 1.44375 1.5675 2.1875 2.375 C4.83299041 4.84412438 6.60373611 5.93260278 10 7 C10.37125 5.5459375 10.37125 5.5459375 10.75 4.0625 C11.1625 3.051875 11.575 2.04125 12 1 C16.26190107 -0.76354527 19.74543201 0.79453907 24 2 C20.1496895 4.56687367 18.41430237 3.83288724 14 3 C13.690625 3.78375 13.38125 4.5675 13.0625 5.375 C12 8 12 8 11 10 C5.71862571 9.48474397 2.42778844 7.74522883 -2 5 C-2 3.68 -2 2.36 -2 1 C-1.34 0.67 -0.68 0.34 0 0 Z " fill="#DDDDDD" transform="translate(35,101)"/>
<path d="M0 0 C3.96 0 7.92 0 12 0 C12 2.64 12 5.28 12 8 C8.04 8 4.08 8 0 8 C0.66 7.67 1.32 7.34 2 7 C2 5.02 2 3.04 2 1 C1.34 0.67 0.68 0.34 0 0 Z " fill="#F7C433" transform="translate(27,60)"/>
<path d="M0 0 C4.95 0 9.9 0 15 0 C15 3.63 15 7.26 15 11 C14.34 11 13.68 11 13 11 C12.67 8.36 12.34 5.72 12 3 C8.7 2.67 5.4 2.34 2 2 C2 5.3 2 8.6 2 12 C-0.31 12 -2.62 12 -5 12 C-5 11.34 -5 10.68 -5 10 C-3.35 10 -1.7 10 0 10 C0 6.7 0 3.4 0 0 Z " fill="#EAEAEA" transform="translate(57,13)"/>
<path d="M0 0 C0.99 0 1.98 0 3 0 C3 2.97 3 5.94 3 9 C6.3 8.67 9.6 8.34 13 8 C13.33 5.36 13.66 2.72 14 0 C14.66 0 15.32 0 16 0 C16 3.63 16 7.26 16 11 C11.05 11 6.1 11 1 11 C0.67 7.37 0.34 3.74 0 0 Z " fill="#E7E7E7" transform="translate(56,104)"/>
<path d="M0 0 C2.5995892 0.37216341 3.73317764 0.69315428 5.484375 2.70703125 C5.90203125 3.40183594 6.3196875 4.09664062 6.75 4.8125 C7.39195313 5.84310547 7.39195313 5.84310547 8.046875 6.89453125 C9 9 9 9 9 13 C8.34 13 7.68 13 7 13 C6.51080078 12.06027344 6.51080078 12.06027344 6.01171875 11.1015625 C5.57472656 10.28429688 5.13773437 9.46703125 4.6875 8.625 C4.25824219 7.81289063 3.82898438 7.00078125 3.38671875 6.1640625 C2.03221276 3.73165957 2.03221276 3.73165957 -1 2 C-0.67 1.34 -0.34 0.68 0 0 Z " fill="#D6D6D6" transform="translate(102,33)"/>
<path d="M0 0 C-2.6855594 2.6855594 -5.37621328 3.06049974 -9 4 C-9 3.67 -9 3.34 -9 3 C-9.97582031 2.95101562 -10.95164062 2.90203125 -11.95703125 2.8515625 C-13.22933594 2.77679688 -14.50164062 2.70203125 -15.8125 2.625 C-17.07707031 2.55539063 -18.34164062 2.48578125 -19.64453125 2.4140625 C-23 2 -23 2 -26 0 C-24.10314453 0.01740234 -24.10314453 0.01740234 -22.16796875 0.03515625 C-20.50781398 0.04453566 -18.84765761 0.0536357 -17.1875 0.0625 C-16.35412109 0.07087891 -15.52074219 0.07925781 -14.66210938 0.08789062 C-13.45844727 0.09272461 -13.45844727 0.09272461 -12.23046875 0.09765625 C-11.49207764 0.10289307 -10.75368652 0.10812988 -9.99291992 0.11352539 C-1.51799894 -0.36924299 -1.51799894 -0.36924299 0 0 Z " fill="#A68422" transform="translate(80,94)"/>
<path d="M0 0 C0.66 0 1.32 0 2 0 C1.53851564 4.92249987 -0.80390169 9.27737682 -4 13 C-4.99 13 -5.98 13 -7 13 C-7 12.01 -7 11.02 -7 10 C-6.01 10 -5.02 10 -4 10 C-3.896875 9.278125 -3.79375 8.55625 -3.6875 7.8125 C-2.93206053 4.72206579 -1.84468685 2.58256159 0 0 Z " fill="#D3D3D3" transform="translate(109,82)"/>
<path d="M0 0 C6.27 0.33 12.54 0.66 19 1 C18.67 1.66 18.34 2.32 18 3 C15.56183415 3.0809723 13.12635616 3.14046972 10.6875 3.1875 C9.65206055 3.22520508 9.65206055 3.22520508 8.59570312 3.26367188 C6.57421875 3.29296875 6.57421875 3.29296875 3 3 C2.01 2.01 1.02 1.02 0 0 Z " fill="#EEBE31" transform="translate(53,95)"/>
<path d="M0 0 C0.99 0.33 1.98 0.66 3 1 C2.67 2.65 2.34 4.3 2 6 C1.34 6 0.68 6 0 6 C-0.28875 6.804375 -0.5775 7.60875 -0.875 8.4375 C-2 11 -2 11 -4 12 C-3.45660208 7.43545749 -2.20536179 4.0271824 0 0 Z " fill="#C9A029" transform="translate(94,73)"/>
<path d="M0 0 C1.65 1.32 3.3 2.64 5 4 C4.4409112 7.24271506 3.5867822 8.93057424 1 11 C0.34 11 -0.32 11 -1 11 C-0.835 9.9275 -0.67 8.855 -0.5 7.75 C0.08810915 3.96971248 0.08810915 3.96971248 0 0 Z " fill="#CECECE" transform="translate(35,91)"/>
<path d="M0 0 C0.99 0 1.98 0 3 0 C2.4375 1.9375 2.4375 1.9375 1 4 C-2.375 5 -2.375 5 -6 5 C-8.4375 3.0625 -8.4375 3.0625 -10 1 C-9.36191406 1.01160156 -8.72382812 1.02320312 -8.06640625 1.03515625 C-7.24011719 1.04417969 -6.41382812 1.05320312 -5.5625 1.0625 C-4.32693359 1.07990234 -4.32693359 1.07990234 -3.06640625 1.09765625 C-1.00836062 1.23267348 -1.00836062 1.23267348 0 0 Z " fill="#242424" transform="translate(82,74)"/>
<path d="M0 0 C3 1 3 1 4.6875 3.3125 C6 6 6 6 6 10 C6.66 10 7.32 10 8 10 C8 10.66 8 11.32 8 12 C4.74905801 10.95505436 3.43126714 9.40864509 1.75 6.5625 C0 3 0 3 0 0 Z " fill="#E0E0E0" transform="translate(17,83)"/>
<path d="M0 0 C0.66 0.33 1.32 0.66 2 1 C1.82374165 3.37948772 1.30280227 4.70225849 -0.40234375 6.37890625 C-1.90649092 7.62115486 -3.45129851 8.81376056 -5 10 C-5 9.34 -5 8.68 -5 8 C-5.66 7.67 -6.32 7.34 -7 7 C-6.38125 6.566875 -5.7625 6.13375 -5.125 5.6875 C-2.7802755 4.00259517 -2.7802755 4.00259517 -1 1 C-0.67 0.67 -0.34 0.34 0 0 Z " fill="#CACACA" transform="translate(38,29)"/>
<path d="M0 0 C0.80824219 0.28746094 1.61648437 0.57492188 2.44921875 0.87109375 C3.06410156 1.09925781 3.67898437 1.32742187 4.3125 1.5625 C4.3125 2.5525 4.3125 3.5425 4.3125 4.5625 C2.87318883 4.10988642 1.43611001 3.65017021 0 3.1875 C-0.80050781 2.93226562 -1.60101563 2.67703125 -2.42578125 2.4140625 C-4.6875 1.5625 -4.6875 1.5625 -7.6875 -0.4375 C-4.20878379 -1.59707207 -3.34530355 -1.21206651 0 0 Z " fill="#D1A62B" transform="translate(76.6875,32.4375)"/>
<path d="M0 0 C0.33 0 0.66 0 1 0 C0.67 2.97 0.34 5.94 0 9 C-0.99 9.33 -1.98 9.66 -3 10 C-3.3648363 5.74357648 -2.47460354 3.46444495 0 0 Z " fill="#CDA32A" transform="translate(35,44)"/>
<path d="M0 0 C0.99 0 1.98 0 3 0 C3.05399736 1.45792884 3.09279177 2.91642712 3.125 4.375 C3.14820313 5.18710938 3.17140625 5.99921875 3.1953125 6.8359375 C3 9 3 9 1 11 C0.67 7.37 0.34 3.74 0 0 Z " fill="#F2F2F2" transform="translate(56,104)"/>
<path d="M0 0 C1.98 0.495 1.98 0.495 4 1 C4.33 2.32 4.66 3.64 5 5 C4.01 5.495 4.01 5.495 3 6 C2.67 5.34 2.34 4.68 2 4 C1.01 3.34 0.02 2.68 -1 2 C-0.67 1.34 -0.34 0.68 0 0 Z " fill="#E2E2E2" transform="translate(102,33)"/>
<path d="M0 0 C4.75 1.875 4.75 1.875 7 3 C7 3.66 7 4.32 7 5 C2.25 4.125 2.25 4.125 0 3 C0 2.01 0 1.02 0 0 Z " fill="#E4E4E4" transform="translate(26,34)"/>
<path d="M0 0 C0.86625 0.3403125 0.86625 0.3403125 1.75 0.6875 C1.75 1.6775 1.75 2.6675 1.75 3.6875 C-0.89 3.3575 -3.53 3.0275 -6.25 2.6875 C-2.80384615 -0.38942308 -2.80384615 -0.38942308 0 0 Z " fill="#ECECEC" transform="translate(79.25,101.3125)"/>
<path d="M0 0 C3.68754757 0.49831724 5.60490662 1.10067643 8 4 C4.28400809 4.20086443 3.22791555 4.1519437 0 2 C0 1.34 0 0.68 0 0 Z " fill="#E5E5E5" transform="translate(84,18)"/>
<path d="M0 0 C0.66 0 1.32 0 2 0 C1.67 1.65 1.34 3.3 1 5 C-0.32 5.33 -1.64 5.66 -3 6 C-3 5.01 -3 4.02 -3 3 C-2.01 3 -1.02 3 0 3 C0 2.01 0 1.02 0 0 Z " fill="#E9E9E9" transform="translate(105,89)"/>
<path d="M0 0 C0.33 0.99 0.66 1.98 1 3 C-0.75 3.6875 -0.75 3.6875 -3 4 C-5.25 2.5625 -5.25 2.5625 -7 1 C-3.535 0.505 -3.535 0.505 0 0 Z " fill="#EDEDED" transform="translate(80,23)"/>
</svg>
