<?xml version="1.0" standalone="no"?>
<!DOCTYPE svg PUBLIC "-//W3C//DTD SVG 20010904//EN"
 "http://www.w3.org/TR/2001/REC-SVG-20010904/DTD/svg10.dtd">
<svg version="1.0" xmlns="http://www.w3.org/2000/svg"
 width="2000.000000pt" height="1500.000000pt" viewBox="0 0 2000.000000 1500.000000"
 preserveAspectRatio="xMidYMid meet">

<g transform="translate(0.000000,1500.000000) scale(0.100000,-0.100000)"
fill="#000000" stroke="none">
<path d="M0 7500 l0 -7500 10000 0 10000 0 0 7500 0 7500 -10000 0 -10000 0 0
-7500z m12153 4889 c45 -12 100 -58 116 -96 8 -21 11 -446 9 -1608 l-3 -1580
-23 -33 c-13 -18 -41 -41 -62 -52 -39 -20 -67 -20 -2264 -20 -1551 0 -2233 3
-2253 11 -40 15 -73 48 -94 94 -18 38 -19 104 -19 1585 0 981 4 1558 10 1580
11 41 72 103 115 118 42 15 4415 16 4468 1z m-33 -3979 c0 -12 -365 -2086
-381 -2167 l-10 -53 -211 0 -210 0 6 28 c11 50 386 2183 386 2193 0 5 85 9
210 9 135 0 210 -4 210 -10z m-4590 -60 c0 -5 88 -478 195 -1052 108 -574 198
-1058 201 -1076 l6 -32 -223 2 -223 3 -41 245 -41 245 -411 3 -412 2 -15 -22
c-8 -13 -68 -124 -133 -248 l-118 -225 -218 -3 c-180 -2 -218 0 -215 11 2 8
264 496 583 1085 l580 1072 243 0 c147 0 242 -4 242 -10z m1947 -587 c-3 -16
-20 -114 -38 -219 l-32 -191 -136 -6 c-75 -3 -158 -12 -186 -20 -156 -44 -261
-152 -309 -317 -9 -30 -45 -224 -82 -430 -36 -206 -68 -378 -70 -382 -3 -5
-97 -8 -210 -8 -166 0 -204 3 -204 14 0 14 242 1411 261 1504 l11 52 185 -2
185 -3 -1 -135 -2 -135 68 68 c37 37 95 85 128 107 113 75 268 127 384 129 53
1 53 1 48 -26z m1226 3 c185 -51 310 -161 357 -315 36 -113 29 -187 -65 -722
-47 -266 -88 -496 -91 -511 l-6 -28 -184 0 -185 0 7 116 7 116 -75 -75 c-81
-81 -191 -144 -303 -172 -70 -18 -260 -20 -337 -4 -282 59 -408 342 -273 615
78 160 263 273 505 310 62 9 178 14 336 14 211 0 243 2 248 16 10 25 7 156 -4
196 -15 52 -76 103 -139 117 -176 38 -359 -32 -416 -159 l-18 -40 -204 0
c-111 0 -203 2 -203 5 0 2 11 33 24 69 89 237 321 414 613 466 76 14 339 5
406 -14z m2666 4 c223 -54 378 -206 437 -430 23 -87 21 -286 -4 -390 l-18 -75
-578 -3 -579 -2 6 -78 c6 -92 32 -156 83 -207 63 -63 113 -80 234 -80 99 0
110 2 171 32 40 20 85 53 113 83 l47 50 215 -2 215 -3 -59 -90 c-130 -197
-334 -342 -554 -395 -115 -28 -305 -28 -412 0 -277 71 -447 281 -463 573 -25
452 227 844 634 988 146 52 365 64 512 29z m-3944 -2242 c-5 -25 -385 -2196
-385 -2204 0 -2 -84 -3 -187 -2 l-188 3 -3 103 -3 103 -72 -66 c-130 -120
-281 -177 -466 -178 -183 0 -305 47 -423 164 -142 142 -210 377 -179 624 32
260 132 463 307 624 172 158 370 229 603 218 129 -6 201 -26 283 -78 49 -32
138 -123 138 -142 0 -42 18 50 80 404 38 222 72 414 75 427 5 22 6 22 215 22
l210 0 -5 -22z m-4655 -9 c125 -15 194 -35 299 -86 125 -60 237 -169 295 -285
41 -84 76 -229 76 -315 l0 -53 -228 0 -229 0 -12 67 c-39 211 -213 319 -480
299 -375 -28 -650 -353 -701 -826 -32 -294 56 -507 251 -604 155 -78 380 -72
554 13 78 39 170 131 215 215 l35 66 228 0 c189 0 227 -2 227 -14 0 -8 -24
-63 -54 -123 -173 -343 -492 -548 -907 -582 -451 -37 -779 133 -919 477 -52
127 -65 210 -64 397 0 200 17 304 74 476 71 214 174 383 325 534 266 267 633
392 1015 344z m2006 -633 c304 -98 474 -390 435 -748 -36 -329 -213 -598 -493
-747 -200 -107 -464 -135 -669 -71 -197 61 -359 236 -416 450 -28 103 -23 326
10 451 26 99 83 226 137 305 132 191 351 333 585 380 113 22 311 13 411 -20z
m3871 19 c238 -45 420 -222 469 -457 20 -92 15 -273 -10 -375 l-18 -73 -573 0
-573 0 -5 -23 c-9 -35 9 -143 33 -192 12 -25 42 -63 67 -85 62 -55 130 -74
243 -68 108 5 181 37 258 115 l53 53 210 0 c115 0 209 -3 209 -6 0 -14 -65
-112 -117 -177 -114 -142 -310 -266 -488 -308 -122 -29 -307 -29 -418 0 -93
24 -194 76 -259 131 -65 56 -139 171 -169 261 -22 68 -24 89 -23 254 1 213 15
280 93 440 133 269 378 458 666 510 96 18 258 18 352 0z m1778 -9 c41 -13 102
-16 338 -16 l288 0 -7 -37 c-4 -21 -14 -76 -23 -123 l-16 -85 -90 -8 c-50 -4
-109 -10 -133 -13 l-42 -5 7 -42 c13 -69 6 -220 -12 -283 -96 -334 -440 -541
-819 -494 l-95 12 -56 -48 -57 -49 42 -18 c57 -25 151 -44 315 -62 322 -37
456 -98 527 -243 30 -61 33 -74 33 -162 0 -155 -42 -264 -146 -374 -161 -173
-431 -261 -739 -241 -284 18 -476 108 -550 260 -22 44 -25 63 -25 165 0 112 1
117 37 192 36 77 120 175 192 225 l28 19 -49 32 c-26 17 -61 45 -77 61 -24 25
-27 35 -22 64 5 28 33 58 161 173 85 76 155 141 155 145 0 4 -16 30 -35 59
-47 70 -68 147 -68 250 0 177 61 320 192 450 111 110 235 177 392 210 67 14
295 5 354 -14z m1853 8 c216 -43 377 -183 448 -389 25 -72 28 -94 28 -220 1
-107 -4 -158 -18 -217 l-20 -78 -575 -2 -576 -3 -3 -30 c-5 -40 16 -142 38
-185 28 -54 99 -115 159 -135 40 -13 76 -16 145 -13 114 5 182 35 262 114 l54
54 210 0 c115 0 210 -3 210 -6 0 -13 -95 -151 -137 -200 -186 -215 -485 -333
-768 -304 -169 18 -298 74 -401 175 -141 139 -197 323 -174 570 36 392 264
698 618 831 137 52 352 68 500 38z m2020 1 c134 -32 235 -110 290 -226 77
-163 73 -275 -38 -891 l-84 -468 -208 0 c-114 0 -208 2 -208 4 0 3 36 211 81
463 70 396 81 469 76 538 -9 151 -71 221 -213 240 -198 26 -400 -120 -461
-336 -12 -41 -54 -262 -94 -491 l-73 -418 -208 0 c-169 0 -208 3 -208 14 0 14
256 1486 265 1524 5 22 7 22 192 22 l186 0 -6 -118 -7 -119 83 82 c93 91 206
155 318 180 85 18 239 18 317 0z"/>
<path d="M7878 12164 c-30 -16 -58 -61 -58 -94 0 -40 28 -89 61 -105 79 -41
169 12 169 101 0 39 -5 51 -34 80 -27 27 -42 34 -72 34 -22 -1 -51 -7 -66 -16z"/>
<path d="M8244 12170 c-57 -23 -84 -117 -48 -168 49 -70 161 -66 199 8 51 99
-47 202 -151 160z"/>
<path d="M8580 12153 c-57 -52 -56 -129 1 -177 44 -37 97 -36 143 5 44 38 54
83 32 131 -33 70 -121 90 -176 41z"/>
<path d="M7901 11729 c-52 -10 -104 -48 -129 -92 -16 -30 -17 -102 -17 -1102
0 -1032 1 -1071 19 -1108 11 -22 37 -51 59 -65 l41 -27 1989 -3 c1942 -2 1990
-2 2032 17 29 13 53 34 72 62 l28 43 3 1055 c2 731 0 1067 -8 1093 -13 45 -52
93 -94 116 -29 16 -160 17 -1991 18 -1078 1 -1980 -2 -2004 -7z m385 -326 c-4
-27 -10 -70 -13 -96 l-6 -48 39 3 39 3 15 90 16 90 60 3 61 3 -13 -73 c-21
-117 -21 -118 26 -118 l40 0 0 -45 0 -45 -49 0 c-48 0 -48 0 -55 -37 -3 -21
-6 -53 -6 -70 0 -31 2 -33 35 -33 l35 0 0 -50 0 -50 -44 0 c-50 0 -45 9 -67
-122 l-11 -68 -59 0 c-32 0 -59 1 -59 3 0 1 7 40 15 87 8 47 15 89 15 93 0 5
-19 7 -42 5 l-42 -3 -12 -78 c-7 -43 -15 -85 -18 -93 -7 -19 -116 -20 -116 -1
0 13 16 113 25 154 4 18 0 22 -27 25 -32 3 -33 5 -33 48 0 44 1 45 35 48 19 2
38 6 41 10 4 4 10 35 13 70 l7 62 -51 0 -50 0 0 45 0 44 58 3 57 3 14 93 14
92 60 0 60 0 -7 -47z m3054 -43 l0 -50 -40 0 c-27 0 -43 -5 -46 -15 -4 -8 -7
-65 -8 -126 l-1 -111 -42 -37 c-39 -35 -40 -38 -20 -47 48 -21 62 -59 64 -167
l2 -102 45 -3 46 -3 0 -50 0 -49 -95 0 c-88 0 -98 2 -120 25 -24 23 -25 31
-25 135 0 61 -5 120 -11 132 -6 11 -26 26 -45 34 -32 14 -34 17 -34 64 0 37 4
50 14 50 8 0 28 12 45 26 l31 26 0 123 c0 118 1 125 25 154 29 34 43 38 143
40 l72 1 0 -50z m351 12 c29 -32 29 -34 29 -156 l0 -124 31 -26 c17 -14 37
-26 45 -26 10 0 14 -14 14 -55 0 -49 -2 -55 -20 -55 -12 0 -32 -11 -45 -25
-24 -23 -25 -30 -25 -140 0 -110 -1 -117 -25 -140 -22 -23 -32 -25 -120 -25
l-95 0 0 50 0 50 50 0 50 0 0 103 c0 85 3 108 21 136 11 18 28 35 39 38 16 4
14 10 -21 42 l-39 38 0 114 c0 76 -4 119 -12 127 -7 7 -29 12 -50 12 l-38 0 0
51 0 51 91 -4 c88 -4 93 -6 120 -36z m-1513 -958 c4 -3 -318 -808 -328 -818
-6 -6 -104 17 -118 29 -2 2 72 189 163 417 l166 415 57 -20 c31 -11 58 -21 60
-23z m-488 -237 l0 -74 -160 -68 c-89 -38 -157 -72 -153 -76 4 -4 77 -35 161
-69 l152 -62 0 -74 c0 -41 -1 -74 -2 -74 -2 0 -129 51 -283 113 l-280 113 0
58 0 57 280 114 c154 63 281 114 283 115 1 0 2 -33 2 -73z m885 -58 l240 -96
0 -59 0 -58 -279 -113 c-153 -62 -281 -113 -282 -113 -2 0 -4 33 -4 73 l0 73
156 64 c85 35 157 67 160 71 2 4 -68 38 -156 75 l-160 69 0 72 0 73 43 -17
c23 -9 150 -60 282 -114z"/>
<path d="M8246 11138 c-3 -18 -7 -50 -9 -70 l-3 -38 43 0 c39 0 43 2 43 24 0
13 3 44 6 70 l7 46 -41 0 c-39 0 -41 -2 -46 -32z"/>
<path d="M6970 7447 l-225 -432 299 -3 c164 -1 300 -1 302 1 5 5 -140 867
-146 867 -3 0 -106 -195 -230 -433z"/>
<path d="M10135 6836 c-122 -38 -176 -103 -177 -210 0 -86 58 -136 171 -144
76 -5 160 15 227 54 89 53 187 183 219 292 l6 22 -203 -1 c-134 0 -217 -5
-243 -13z"/>
<path d="M13001 7435 c-82 -23 -147 -63 -204 -125 -43 -46 -107 -151 -107
-174 0 -3 162 -6 360 -6 l360 0 0 54 c0 106 -48 189 -136 232 -68 33 -191 42
-273 19z"/>
<path d="M8275 4527 c-200 -75 -325 -269 -325 -503 0 -164 70 -290 192 -345
74 -33 216 -33 301 0 126 49 244 174 296 314 18 47 25 90 28 177 4 101 2 122
-17 175 -30 81 -113 163 -189 188 -78 25 -209 22 -286 -6z"/>
<path d="M6410 4550 c-157 -33 -295 -184 -344 -375 -81 -321 50 -542 310 -522
172 13 312 140 377 342 24 73 38 230 27 298 -11 68 -37 131 -74 174 -57 68
-189 105 -296 83z"/>
<path d="M10331 4570 c-128 -27 -239 -114 -304 -238 l-38 -72 360 0 c409 0
379 -7 365 87 -15 101 -63 167 -145 203 -59 25 -170 34 -238 20z"/>
<path d="M12074 4587 c-128 -33 -208 -124 -230 -262 -26 -166 147 -267 348
-205 79 24 138 73 172 143 67 139 36 267 -76 311 -56 23 -152 28 -214 13z"/>
<path d="M11700 3342 c-94 -60 -150 -143 -150 -220 0 -135 101 -197 320 -197
133 0 201 17 276 67 61 42 89 95 89 170 0 60 -17 94 -66 130 -28 21 -129 42
-288 58 -63 7 -120 14 -126 16 -6 3 -31 -8 -55 -24z"/>
<path d="M13943 4565 c-141 -38 -254 -136 -308 -267 l-15 -38 360 0 360 0 0
64 c0 187 -183 298 -397 241z"/>
</g>
</svg>
